<svg xmlns="http://www.w3.org/2000/svg" width="1120" height="510" viewBox="0 0 1120 510" role="img">
<style>
text{font-family:Inter,ui-sans-serif,system-ui,-apple-system,BlinkMacSystemFont,'Segoe UI',sans-serif;fill:#172026}
.title{font-size:28px;font-weight:760}.sub{font-size:14px;fill:#52606d}.label{font-size:15px;font-weight:650}
.value{font-size:13px;fill:#303b45}.axis{stroke:#d7dde3;stroke-width:1}.py{fill:#c2410c}.rs{fill:#0f766e}
.grid{stroke:#edf1f5;stroke-width:1}.speed{font-size:13px;font-weight:700;fill:#172026}
</style>
<rect width="100%" height="100%" fill="#ffffff"/>
<text class="title" x="28" y="38">LeWM Real-Image Planning Latency</text>
<text class="sub" x="28" y="62">Metric: synchronized CUDA wall time in ms. Planner=icem; samples=1024; iterations=5; horizon=5. Lower is faster.</text>
<text class="sub" x="230" y="86">Python / PyTorch</text>
<rect class="py" x="355" y="74" width="14" height="14" rx="2"/>
<text class="sub" x="385" y="86">Rust / Candle</text>
<rect class="rs" x="480" y="74" width="14" height="14" rx="2"/>
<line class="grid" x1="230.0" y1="96" x2="230.0" y2="482"/>
<text class="sub" x="230.0" y="500" text-anchor="middle">0ms</text>
<line class="grid" x1="392.5" y1="96" x2="392.5" y2="482"/>
<text class="sub" x="392.5" y="500" text-anchor="middle">60ms</text>
<line class="grid" x1="555.0" y1="96" x2="555.0" y2="482"/>
<text class="sub" x="555.0" y="500" text-anchor="middle">119ms</text>
<line class="grid" x1="717.5" y1="96" x2="717.5" y2="482"/>
<text class="sub" x="717.5" y="500" text-anchor="middle">179ms</text>
<line class="grid" x1="880.0" y1="96" x2="880.0" y2="482"/>
<text class="sub" x="880.0" y="500" text-anchor="middle">238ms</text>
<line class="axis" x1="230" y1="482" x2="880" y2="482"/>
<text class="label" x="28" y="123">current media</text>
<rect class="py" x="230" y="104" width="73.0" height="18" rx="4"/>
<rect class="rs" x="230" y="128" width="43.5" height="18" rx="4"/>
<text class="value" x="311.0" y="118" text-anchor="start">26.747 ms</text>
<text class="value" x="281.5" y="142" text-anchor="start">15.923 ms</text>
<text class="speed" x="904" y="131">1.68x</text>
<text class="label" x="28" y="185">goal media</text>
<rect class="py" x="230" y="166" width="4.6" height="18" rx="4"/>
<rect class="rs" x="230" y="190" width="1.3" height="18" rx="4"/>
<text class="value" x="242.6" y="180" text-anchor="start">1.699 ms</text>
<text class="value" x="239.3" y="204" text-anchor="start">0.460 ms</text>
<text class="speed" x="904" y="193">3.69x</text>
<text class="label" x="28" y="247">current encode</text>
<rect class="py" x="230" y="228" width="351.6" height="18" rx="4"/>
<rect class="rs" x="230" y="252" width="333.6" height="18" rx="4"/>
<text class="value" x="589.6" y="242" text-anchor="start">128.793 ms</text>
<text class="value" x="571.6" y="266" text-anchor="start">122.177 ms</text>
<text class="speed" x="904" y="255">1.05x</text>
<text class="label" x="28" y="309">goal encode</text>
<rect class="py" x="230" y="290" width="9.6" height="18" rx="4"/>
<rect class="rs" x="230" y="314" width="7.5" height="18" rx="4"/>
<text class="value" x="247.6" y="304" text-anchor="start">3.503 ms</text>
<text class="value" x="245.5" y="328" text-anchor="start">2.745 ms</text>
<text class="speed" x="904" y="317">1.28x</text>
<text class="label" x="28" y="371">iCEM planning</text>
<rect class="py" x="230" y="352" width="650.0" height="18" rx="4"/>
<rect class="rs" x="230" y="376" width="555.5" height="18" rx="4"/>
<text class="value" x="872.0" y="366" text-anchor="end">238.083 ms</text>
<text class="value" x="793.5" y="390" text-anchor="start">203.473 ms</text>
<text class="speed" x="904" y="379">1.17x</text>
<text class="label" x="28" y="433">selected score</text>
<rect class="py" x="230" y="414" width="26.7" height="18" rx="4"/>
<rect class="rs" x="230" y="438" width="21.8" height="18" rx="4"/>
<text class="value" x="264.7" y="428" text-anchor="start">9.796 ms</text>
<text class="value" x="259.8" y="452" text-anchor="start">7.987 ms</text>
<text class="speed" x="904" y="441">1.23x</text>
</svg>
