<svg xmlns="http://www.w3.org/2000/svg" width="1120" height="510" viewBox="0 0 1120 510" role="img">
<style>
text{font-family:Inter,ui-sans-serif,system-ui,-apple-system,BlinkMacSystemFont,'Segoe UI',sans-serif;fill:#172026}
.title{font-size:28px;font-weight:760}.sub{font-size:14px;fill:#52606d}.label{font-size:15px;font-weight:650}
.value{font-size:13px;fill:#303b45}.axis{stroke:#d7dde3;stroke-width:1}.py{fill:#c2410c}.rs{fill:#0f766e}
.grid{stroke:#edf1f5;stroke-width:1}.speed{font-size:13px;font-weight:700;fill:#172026}
</style>
<rect width="100%" height="100%" fill="#ffffff"/>
<text class="title" x="28" y="38">LeWM PushT Image Planning Latency</text>
<text class="sub" x="28" y="62">Metric: synchronized CUDA wall time in ms. Planner=icem; samples=1024; iterations=5; horizon=5. Lower is faster.</text>
<text class="sub" x="230" y="86">Python / PyTorch</text>
<rect class="py" x="355" y="74" width="14" height="14" rx="2"/>
<text class="sub" x="385" y="86">Rust / Candle</text>
<rect class="rs" x="480" y="74" width="14" height="14" rx="2"/>
<line class="grid" x1="230.0" y1="96" x2="230.0" y2="482"/>
<text class="sub" x="230.0" y="500" text-anchor="middle">0ms</text>
<line class="grid" x1="392.5" y1="96" x2="392.5" y2="482"/>
<text class="sub" x="392.5" y="500" text-anchor="middle">65ms</text>
<line class="grid" x1="555.0" y1="96" x2="555.0" y2="482"/>
<text class="sub" x="555.0" y="500" text-anchor="middle">131ms</text>
<line class="grid" x1="717.5" y1="96" x2="717.5" y2="482"/>
<text class="sub" x="717.5" y="500" text-anchor="middle">196ms</text>
<line class="grid" x1="880.0" y1="96" x2="880.0" y2="482"/>
<text class="sub" x="880.0" y="500" text-anchor="middle">261ms</text>
<line class="axis" x1="230" y1="482" x2="880" y2="482"/>
<text class="label" x="28" y="123">current media</text>
<rect class="py" x="230" y="104" width="50.2" height="18" rx="4"/>
<rect class="rs" x="230" y="128" width="41.5" height="18" rx="4"/>
<text class="value" x="288.2" y="118" text-anchor="start">20.175 ms</text>
<text class="value" x="279.5" y="142" text-anchor="start">16.673 ms</text>
<text class="speed" x="904" y="131">1.21x</text>
<text class="label" x="28" y="185">goal media</text>
<rect class="py" x="230" y="166" width="2.1" height="18" rx="4"/>
<rect class="rs" x="230" y="190" width="0.3" height="18" rx="4"/>
<text class="value" x="240.1" y="180" text-anchor="start">0.824 ms</text>
<text class="value" x="238.3" y="204" text-anchor="start">0.120 ms</text>
<text class="speed" x="904" y="193">6.87x</text>
<text class="label" x="28" y="247">current encode</text>
<rect class="py" x="230" y="228" width="341.7" height="18" rx="4"/>
<rect class="rs" x="230" y="252" width="356.2" height="18" rx="4"/>
<text class="value" x="579.7" y="242" text-anchor="start">137.283 ms</text>
<text class="value" x="594.2" y="266" text-anchor="start">143.124 ms</text>
<text class="speed" x="904" y="255">0.96x</text>
<text class="label" x="28" y="309">goal encode</text>
<rect class="py" x="230" y="290" width="8.9" height="18" rx="4"/>
<rect class="rs" x="230" y="314" width="7.0" height="18" rx="4"/>
<text class="value" x="246.9" y="304" text-anchor="start">3.557 ms</text>
<text class="value" x="245.0" y="328" text-anchor="start">2.798 ms</text>
<text class="speed" x="904" y="317">1.27x</text>
<text class="label" x="28" y="371">iCEM planning</text>
<rect class="py" x="230" y="352" width="637.5" height="18" rx="4"/>
<rect class="rs" x="230" y="376" width="650.0" height="18" rx="4"/>
<text class="value" x="859.5" y="366" text-anchor="end">256.130 ms</text>
<text class="value" x="872.0" y="390" text-anchor="end">261.153 ms</text>
<text class="speed" x="904" y="379">0.98x</text>
<text class="label" x="28" y="433">selected score</text>
<rect class="py" x="230" y="414" width="49.1" height="18" rx="4"/>
<rect class="rs" x="230" y="438" width="44.8" height="18" rx="4"/>
<text class="value" x="287.1" y="428" text-anchor="start">19.714 ms</text>
<text class="value" x="282.8" y="452" text-anchor="start">17.992 ms</text>
<text class="speed" x="904" y="441">1.10x</text>
</svg>
