<svg xmlns="http://www.w3.org/2000/svg" width="1120" height="624" viewBox="0 0 1120 624" role="img">
<style>
text{font-family:Inter,ui-sans-serif,system-ui,-apple-system,BlinkMacSystemFont,'Segoe UI',sans-serif;fill:#172026}
.title{font-size:28px;font-weight:760}.sub{font-size:14px;fill:#52606d}.label{font-size:15px;font-weight:650}
.value{font-size:13px;fill:#303b45}.axis{stroke:#d7dde3;stroke-width:1}.py{fill:#c2410c}.rs{fill:#0f766e}
.grid{stroke:#edf1f5;stroke-width:1}.speed{font-size:13px;font-weight:700;fill:#172026}
</style>
<rect width="100%" height="100%" fill="#ffffff"/>
<text class="title" x="28" y="38">TD-MPC2 CUDA Runtime Latency</text>
<text class="sub" x="28" y="62">Metric: p50_ms. Lower is faster. TD-MPC2 CUDA; media_jpeg includes decode and model-tensor preprocessing.</text>
<text class="sub" x="230" y="82">Python / PyTorch</text>
<rect class="py" x="355" y="70" width="14" height="14" rx="2"/>
<text class="sub" x="385" y="82">Rust / Candle</text>
<rect class="rs" x="480" y="70" width="14" height="14" rx="2"/>
<line class="grid" x1="230.0" y1="88" x2="230.0" y2="596"/>
<text class="sub" x="230.0" y="614" text-anchor="middle">0.0ms</text>
<line class="grid" x1="392.5" y1="88" x2="392.5" y2="596"/>
<text class="sub" x="392.5" y="614" text-anchor="middle">0.8ms</text>
<line class="grid" x1="555.0" y1="88" x2="555.0" y2="596"/>
<text class="sub" x="555.0" y="614" text-anchor="middle">1.6ms</text>
<line class="grid" x1="717.5" y1="88" x2="717.5" y2="596"/>
<text class="sub" x="717.5" y="614" text-anchor="middle">2.5ms</text>
<line class="grid" x1="880.0" y1="88" x2="880.0" y2="596"/>
<text class="sub" x="880.0" y="614" text-anchor="middle">3.3ms</text>
<line class="axis" x1="230" y1="596" x2="880" y2="596"/>
<text class="label" x="28" y="115">media_jpeg</text>
<rect class="py" x="230" y="96" width="28.7" height="18" rx="4"/>
<rect class="rs" x="230" y="120" width="6.2" height="18" rx="4"/>
<text class="value" x="266.7" y="110" text-anchor="start">0.145 ms</text>
<text class="value" x="244.2" y="134" text-anchor="start">0.031 ms</text>
<text class="speed" x="904" y="123">4.61x</text>
<text class="label" x="28" y="177">encode</text>
<rect class="py" x="230" y="158" width="25.0" height="18" rx="4"/>
<rect class="rs" x="230" y="182" width="12.3" height="18" rx="4"/>
<text class="value" x="263.0" y="172" text-anchor="start">0.126 ms</text>
<text class="value" x="250.3" y="196" text-anchor="start">0.062 ms</text>
<text class="speed" x="904" y="185">2.03x</text>
<text class="label" x="28" y="239">dynamics</text>
<rect class="py" x="230" y="220" width="46.8" height="18" rx="4"/>
<rect class="rs" x="230" y="244" width="41.8" height="18" rx="4"/>
<text class="value" x="284.8" y="234" text-anchor="start">0.237 ms</text>
<text class="value" x="279.8" y="258" text-anchor="start">0.212 ms</text>
<text class="speed" x="904" y="247">1.12x</text>
<text class="label" x="28" y="301">score</text>
<rect class="py" x="230" y="282" width="568.0" height="18" rx="4"/>
<rect class="rs" x="230" y="306" width="520.9" height="18" rx="4"/>
<text class="value" x="790.0" y="296" text-anchor="end">2.874 ms</text>
<text class="value" x="758.9" y="320" text-anchor="start">2.636 ms</text>
<text class="speed" x="904" y="309">1.09x</text>
<text class="label" x="28" y="363">full</text>
<rect class="py" x="230" y="344" width="650.0" height="18" rx="4"/>
<rect class="rs" x="230" y="368" width="572.3" height="18" rx="4"/>
<text class="value" x="872.0" y="358" text-anchor="end">3.289 ms</text>
<text class="value" x="794.3" y="382" text-anchor="end">2.896 ms</text>
<text class="speed" x="904" y="371">1.14x</text>
<text class="label" x="28" y="425">policy_rollout</text>
<rect class="py" x="230" y="406" width="339.2" height="18" rx="4"/>
<rect class="rs" x="230" y="430" width="307.9" height="18" rx="4"/>
<text class="value" x="577.2" y="420" text-anchor="start">1.716 ms</text>
<text class="value" x="545.9" y="444" text-anchor="start">1.558 ms</text>
<text class="speed" x="904" y="433">1.10x</text>
<text class="label" x="28" y="487">policy_sample_fixed</text>
<rect class="py" x="230" y="468" width="304.5" height="18" rx="4"/>
<rect class="rs" x="230" y="492" width="292.3" height="18" rx="4"/>
<text class="value" x="542.5" y="482" text-anchor="start">1.541 ms</text>
<text class="value" x="530.3" y="506" text-anchor="start">1.479 ms</text>
<text class="speed" x="904" y="495">1.04x</text>
<text class="label" x="28" y="549">policy_sample_generated</text>
<rect class="py" x="230" y="530" width="303.3" height="18" rx="4"/>
<rect class="rs" x="230" y="554" width="287.7" height="18" rx="4"/>
<text class="value" x="541.3" y="544" text-anchor="start">1.535 ms</text>
<text class="value" x="525.7" y="568" text-anchor="start">1.456 ms</text>
<text class="speed" x="904" y="557">1.05x</text>
</svg>
