<svg xmlns="http://www.w3.org/2000/svg" width="1120" height="562" viewBox="0 0 1120 562" role="img">
<style>
text{font-family:Inter,ui-sans-serif,system-ui,-apple-system,BlinkMacSystemFont,'Segoe UI',sans-serif;fill:#172026}
.title{font-size:28px;font-weight:760}.sub{font-size:14px;fill:#52606d}.label{font-size:15px;font-weight:650}
.value{font-size:13px;fill:#303b45}.axis{stroke:#d7dde3;stroke-width:1}.py{fill:#c2410c}.rs{fill:#0f766e}
.grid{stroke:#edf1f5;stroke-width:1}.speed{font-size:13px;font-weight:700;fill:#172026}
</style>
<rect width="100%" height="100%" fill="#ffffff"/>
<text class="title" x="28" y="38">TD-MPC2 CUDA Runtime Latency</text>
<text class="sub" x="28" y="62">Metric: p50_ms. Lower is faster. TD-MPC2 CUDA; media_jpeg includes decode and model-tensor preprocessing.</text>
<text class="sub" x="180" y="82">Python / PyTorch</text>
<rect class="py" x="305" y="70" width="14" height="14" rx="2"/>
<text class="sub" x="335" y="82">Rust / Candle</text>
<rect class="rs" x="430" y="70" width="14" height="14" rx="2"/>
<line class="grid" x1="180.0" y1="88" x2="180.0" y2="534"/>
<text class="sub" x="180.0" y="552" text-anchor="middle">0.0ms</text>
<line class="grid" x1="355.0" y1="88" x2="355.0" y2="534"/>
<text class="sub" x="355.0" y="552" text-anchor="middle">0.8ms</text>
<line class="grid" x1="530.0" y1="88" x2="530.0" y2="534"/>
<text class="sub" x="530.0" y="552" text-anchor="middle">1.7ms</text>
<line class="grid" x1="705.0" y1="88" x2="705.0" y2="534"/>
<text class="sub" x="705.0" y="552" text-anchor="middle">2.5ms</text>
<line class="grid" x1="880.0" y1="88" x2="880.0" y2="534"/>
<text class="sub" x="880.0" y="552" text-anchor="middle">3.3ms</text>
<line class="axis" x1="180" y1="534" x2="880" y2="534"/>
<text class="label" x="28" y="115">media_jpeg</text>
<rect class="py" x="180" y="96" width="39.7" height="18" rx="4"/>
<rect class="rs" x="180" y="120" width="7.8" height="18" rx="4"/>
<text class="value" x="227.7" y="110" text-anchor="start">0.187 ms</text>
<text class="value" x="195.8" y="134" text-anchor="start">0.037 ms</text>
<text class="speed" x="904" y="123">5.11x</text>
<text class="label" x="28" y="177">encode</text>
<rect class="py" x="180" y="158" width="27.3" height="18" rx="4"/>
<rect class="rs" x="180" y="182" width="13.1" height="18" rx="4"/>
<text class="value" x="215.3" y="172" text-anchor="start">0.129 ms</text>
<text class="value" x="201.1" y="196" text-anchor="start">0.062 ms</text>
<text class="speed" x="904" y="185">2.08x</text>
<text class="label" x="28" y="239">dynamics</text>
<rect class="py" x="180" y="220" width="51.2" height="18" rx="4"/>
<rect class="rs" x="180" y="244" width="42.4" height="18" rx="4"/>
<text class="value" x="239.2" y="234" text-anchor="start">0.242 ms</text>
<text class="value" x="230.4" y="258" text-anchor="start">0.200 ms</text>
<text class="speed" x="904" y="247">1.21x</text>
<text class="label" x="28" y="301">score</text>
<rect class="py" x="180" y="282" width="623.7" height="18" rx="4"/>
<rect class="rs" x="180" y="306" width="559.5" height="18" rx="4"/>
<text class="value" x="795.7" y="296" text-anchor="end">2.947 ms</text>
<text class="value" x="747.5" y="320" text-anchor="start">2.644 ms</text>
<text class="speed" x="904" y="309">1.11x</text>
<text class="label" x="28" y="363">full</text>
<rect class="py" x="180" y="344" width="700.0" height="18" rx="4"/>
<rect class="rs" x="180" y="368" width="636.6" height="18" rx="4"/>
<text class="value" x="872.0" y="358" text-anchor="end">3.307 ms</text>
<text class="value" x="808.6" y="382" text-anchor="end">3.008 ms</text>
<text class="speed" x="904" y="371">1.10x</text>
<text class="label" x="28" y="425">policy_rollout</text>
<rect class="py" x="180" y="406" width="366.0" height="18" rx="4"/>
<rect class="rs" x="180" y="430" width="401.7" height="18" rx="4"/>
<text class="value" x="554.0" y="420" text-anchor="start">1.729 ms</text>
<text class="value" x="589.7" y="444" text-anchor="start">1.898 ms</text>
<text class="speed" x="904" y="433">0.91x</text>
<text class="label" x="28" y="487">policy_sample</text>
<rect class="py" x="180" y="468" width="331.5" height="18" rx="4"/>
<rect class="rs" x="180" y="492" width="326.8" height="18" rx="4"/>
<text class="value" x="519.5" y="482" text-anchor="start">1.566 ms</text>
<text class="value" x="514.8" y="506" text-anchor="start">1.544 ms</text>
<text class="speed" x="904" y="495">1.01x</text>
</svg>
